<?xml version="1.0" encoding="UTF-8" standalone="no"?>
<!DOCTYPE svg PUBLIC "-//W3C//DTD SVG 1.1//EN"
 "http://www.w3.org/Graphics/SVG/1.1/DTD/svg11.dtd">
<!-- Generated by graphviz version 5.0.0 (20220707.1540)
 -->
<!-- Title: dependencies Pages: 1 -->
<svg width="648pt" height="247pt"
 viewBox="0.00 0.00 648.00 246.80" xmlns="http://www.w3.org/2000/svg" xmlns:xlink="http://www.w3.org/1999/xlink">
<g id="graph0" class="graph" transform="scale(1 1) rotate(0) translate(4 242.8)">
<title>dependencies</title>
<polygon fill="white" stroke="transparent" points="-4,4 -4,-242.8 644,-242.8 644,4 -4,4"/>
<text text-anchor="middle" x="320" y="-8.2" font-family="sans-serif" font-size="14.00">dependencies</text>
<g id="clust1" class="cluster">
<title>cluster_TemplatesModule</title>
<polygon fill="none" stroke="black" stroke-dasharray="1,5" points="8,-32.8 8,-230.8 632,-230.8 632,-32.8 8,-32.8"/>
</g>
<g id="clust2" class="cluster">
<title>cluster_TemplatesModule_declarations</title>
<polygon fill="none" stroke="black" points="22,-40.8 22,-92.8 620,-92.8 620,-40.8 22,-40.8"/>
</g>
<g id="clust7" class="cluster">
<title>cluster_TemplatesModule_exports</title>
<polygon fill="none" stroke="black" points="16,-170.8 16,-222.8 624,-222.8 624,-170.8 16,-170.8"/>
</g>
<!-- TemplateContainerComponent -->
<g id="node1" class="node">
<title>TemplateContainerComponent</title>
<polygon fill="#ffffb3" stroke="black" points="611.9,-84.8 422.1,-84.8 422.1,-48.8 611.9,-48.8 611.9,-84.8"/>
<text text-anchor="middle" x="517" y="-62.6" font-family="Times,serif" font-size="14.00">TemplateContainerComponent</text>
</g>
<!-- TemplatesModule -->
<g id="node4" class="node">
<title>TemplatesModule</title>
<polygon fill="#8dd3c7" stroke="black" points="380.86,-149.8 377.86,-153.8 356.86,-153.8 353.86,-149.8 263.14,-149.8 263.14,-113.8 380.86,-113.8 380.86,-149.8"/>
<text text-anchor="middle" x="322" y="-127.6" font-family="Times,serif" font-size="14.00">TemplatesModule</text>
</g>
<!-- TemplateContainerComponent&#45;&gt;TemplatesModule -->
<g id="edge1" class="edge">
<title>TemplateContainerComponent&#45;&gt;TemplatesModule</title>
<path fill="none" stroke="black" d="M548.98,-84.82C548.98,-102.17 548.98,-125.8 548.98,-125.8 548.98,-125.8 391.04,-125.8 391.04,-125.8"/>
<polygon fill="black" stroke="black" points="391.04,-122.3 381.04,-125.8 391.04,-129.3 391.04,-122.3"/>
</g>
<!-- TemplateFormComponent -->
<g id="node2" class="node">
<title>TemplateFormComponent</title>
<polygon fill="#ffffb3" stroke="black" points="404.03,-84.8 239.97,-84.8 239.97,-48.8 404.03,-48.8 404.03,-84.8"/>
<text text-anchor="middle" x="322" y="-62.6" font-family="Times,serif" font-size="14.00">TemplateFormComponent</text>
</g>
<!-- TemplateFormComponent&#45;&gt;TemplatesModule -->
<g id="edge2" class="edge">
<title>TemplateFormComponent&#45;&gt;TemplatesModule</title>
<path fill="none" stroke="black" d="M322,-84.91C322,-84.91 322,-103.79 322,-103.79"/>
<polygon fill="black" stroke="black" points="318.5,-103.79 322,-113.79 325.5,-103.79 318.5,-103.79"/>
</g>
<!-- TemplateFullWidthComponent -->
<g id="node3" class="node">
<title>TemplateFullWidthComponent</title>
<polygon fill="#ffffb3" stroke="black" points="221.75,-84.8 30.25,-84.8 30.25,-48.8 221.75,-48.8 221.75,-84.8"/>
<text text-anchor="middle" x="126" y="-62.6" font-family="Times,serif" font-size="14.00">TemplateFullWidthComponent</text>
</g>
<!-- TemplateFullWidthComponent&#45;&gt;TemplatesModule -->
<g id="edge3" class="edge">
<title>TemplateFullWidthComponent&#45;&gt;TemplatesModule</title>
<path fill="none" stroke="black" d="M156.46,-84.82C156.46,-102.17 156.46,-125.8 156.46,-125.8 156.46,-125.8 252.7,-125.8 252.7,-125.8"/>
<polygon fill="black" stroke="black" points="252.7,-129.3 262.7,-125.8 252.7,-122.3 252.7,-129.3"/>
</g>
<!-- TemplateContainerComponent  -->
<g id="node5" class="node">
<title>TemplateContainerComponent </title>
<polygon fill="#fb8072" stroke="black" points="616.4,-214.8 423.6,-214.8 423.6,-178.8 616.4,-178.8 616.4,-214.8"/>
<text text-anchor="middle" x="520" y="-192.6" font-family="Times,serif" font-size="14.00">TemplateContainerComponent </text>
</g>
<!-- TemplatesModule&#45;&gt;TemplateContainerComponent  -->
<g id="edge4" class="edge">
<title>TemplatesModule&#45;&gt;TemplateContainerComponent </title>
<path fill="none" stroke="black" stroke-dasharray="5,2" d="M381.3,-137.8C428.36,-137.8 486.27,-137.8 486.27,-137.8 486.27,-137.8 486.27,-168.78 486.27,-168.78"/>
<polygon fill="black" stroke="black" points="482.77,-168.78 486.27,-178.78 489.77,-168.78 482.77,-168.78"/>
</g>
<!-- TemplateFormComponent  -->
<g id="node6" class="node">
<title>TemplateFormComponent </title>
<polygon fill="#fb8072" stroke="black" points="406.03,-214.8 237.97,-214.8 237.97,-178.8 406.03,-178.8 406.03,-214.8"/>
<text text-anchor="middle" x="322" y="-192.6" font-family="Times,serif" font-size="14.00">TemplateFormComponent </text>
</g>
<!-- TemplatesModule&#45;&gt;TemplateFormComponent  -->
<g id="edge5" class="edge">
<title>TemplatesModule&#45;&gt;TemplateFormComponent </title>
<path fill="none" stroke="black" stroke-dasharray="5,2" d="M322,-149.91C322,-149.91 322,-168.79 322,-168.79"/>
<polygon fill="black" stroke="black" points="318.5,-168.79 322,-178.79 325.5,-168.79 318.5,-168.79"/>
</g>
<!-- TemplateFullWidthComponent  -->
<g id="node7" class="node">
<title>TemplateFullWidthComponent </title>
<polygon fill="#fb8072" stroke="black" points="219.75,-214.8 24.25,-214.8 24.25,-178.8 219.75,-178.8 219.75,-214.8"/>
<text text-anchor="middle" x="122" y="-192.6" font-family="Times,serif" font-size="14.00">TemplateFullWidthComponent </text>
</g>
<!-- TemplatesModule&#45;&gt;TemplateFullWidthComponent  -->
<g id="edge6" class="edge">
<title>TemplatesModule&#45;&gt;TemplateFullWidthComponent </title>
<path fill="none" stroke="black" stroke-dasharray="5,2" d="M263.1,-137.8C195.34,-137.8 93.29,-137.8 93.29,-137.8 93.29,-137.8 93.29,-168.78 93.29,-168.78"/>
<polygon fill="black" stroke="black" points="89.79,-168.78 93.29,-178.78 96.79,-168.78 89.79,-168.78"/>
</g>
</g>
</svg>
